HIERARCHY
ROOT root
{
	OFFSET	0	13.1	24.9
	CHANNELS 6  Xposition Yposition Zposition Xrotation Yrotation Zrotation
	JOINT spine_1
	{
		OFFSET	0	9.99999	0
		CHANNELS 3  Xrotation Yrotation Zrotation
		JOINT spine_2
		{
			OFFSET	0	112	-10
			CHANNELS 3  Xrotation Yrotation Zrotation
			JOINT spine_3
			{
				OFFSET	0	206.5	19.3
				CHANNELS 3  Xrotation Yrotation Zrotation
				JOINT spine_4
				{
					OFFSET	0	110.4	14.6
					CHANNELS 3  Xrotation Yrotation Zrotation
					JOINT neck_1
					{
						OFFSET	0	71.8	-50.3
						CHANNELS 3  Xrotation Yrotation Zrotation
						JOINT neck_2
						{
							OFFSET	0	86.2	-25.8
							CHANNELS 3  Xrotation Yrotation Zrotation
							JOINT head_ee
							{
								OFFSET	0	179.8	-8.7
								CHANNELS 3  Xrotation Yrotation Zrotation
								End Site
								{
									OFFSET	1	0	0
								}
							}
						}
					}
					JOINT left_clavicle
					{
						OFFSET	-43.2	22.4	-70.8
						CHANNELS 3  Xrotation Yrotation Zrotation
						JOINT left_shoulder
						{
							OFFSET	-93.9	-5.79999	48.7
							CHANNELS 3  Xrotation Yrotation Zrotation
							JOINT left_elbow
							{
								OFFSET	-291.4	-30.8	15.2
								CHANNELS 3  Xrotation Yrotation Zrotation
								JOINT left_lowarm_twist
								{
									OFFSET	-110.7	-3.89999	13.6
									CHANNELS 3  Xrotation Yrotation Zrotation
									JOINT left_hand
									{
										OFFSET	-110.7	-3.89999	13.6
										CHANNELS 3  Xrotation Yrotation Zrotation
										JOINT left_ee
										{
											OFFSET	-80.8	-5.10001	12.1
											CHANNELS 3  Xrotation Yrotation Zrotation
											End Site
											{
												OFFSET	1	0	0
											}
										}
									}
								}
							}
						}
					}
					JOINT right_clavicle
					{
						OFFSET	43.2	22.4	-70.8
						CHANNELS 3  Xrotation Yrotation Zrotation
						JOINT right_shoulder
						{
							OFFSET	93.9	-5.79999	48.7
							CHANNELS 3  Xrotation Yrotation Zrotation
							JOINT right_elbow
							{
								OFFSET	291.4	-30.8	15.2
								CHANNELS 3  Xrotation Yrotation Zrotation
								JOINT right_lowarm_twist
								{
									OFFSET	110.7	-3.89999	13.6
									CHANNELS 3  Xrotation Yrotation Zrotation
									JOINT right_hand
									{
										OFFSET	110.7	-3.89999	13.6
										CHANNELS 3  Xrotation Yrotation Zrotation
										JOINT right_ee
										{
											OFFSET	80.8	-5.10001	12.1
											CHANNELS 3  Xrotation Yrotation Zrotation
											End Site
											{
												OFFSET	1	0	0
											}
										}
									}
								}
							}
						}
					}
				}
			}
		}
	}
	JOINT left_hip
	{
		OFFSET	-82.8	-127.5	0.300001
		CHANNELS 3  Xrotation Yrotation Zrotation
		JOINT left_knee
		{
			OFFSET	-28.2	-396.7	2.2
			CHANNELS 3  Xrotation Yrotation Zrotation
			JOINT left_ankle
			{
				OFFSET	-11.7	-411.3	35.4
				CHANNELS 3  Xrotation Yrotation Zrotation
				JOINT left_toes
				{
					OFFSET	0	-60	-88.6
					CHANNELS 3  Xrotation Yrotation Zrotation
					JOINT left_foot_ee
					{
						OFFSET	-22.5	-16.5	-42.2
						CHANNELS 3  Xrotation Yrotation Zrotation
						End Site
						{
							OFFSET	1	0	0
						}
					}
				}
			}
		}
	}
	JOINT right_hip
	{
		OFFSET	82.8	-127.5	0.300001
		CHANNELS 3  Xrotation Yrotation Zrotation
		JOINT right_knee
		{
			OFFSET	28.2	-396.7	2.2
			CHANNELS 3  Xrotation Yrotation Zrotation
			JOINT right_ankle
			{
				OFFSET	11.7	-411.3	35.4
				CHANNELS 3  Xrotation Yrotation Zrotation
				JOINT right_toes
				{
					OFFSET	0	-60	-88.6
					CHANNELS 3  Xrotation Yrotation Zrotation
					JOINT right_foot_ee
					{
						OFFSET	22.5	-16.5	-42.2
						CHANNELS 3  Xrotation Yrotation Zrotation
						End Site
						{
							OFFSET	1	0	0
						}
					}
				}
			}
		}
	}
}
MOTION
Frames: 12
Frame Time: 0.02
1705.35 750.099 -1357.7 1.81303 64.5125 -7.88785 2.47736 0.377215 1.5707 2.47869 0.276516 1.59151 2.48621 0.00595706 1.61534 2.48267 0.260962 1.59414 -12.2141 11.8889 1.06605 -12.493 21.8918 4.4944 -0.0 0.0 -0.0 4.04954 5.32454 8.03937 -43.4708 -15.1703 60.3995 0.708069 -19.3287 0.120581 60.6144 -1.82893 -7.16432 -1.04555 10.2426 -2.44879 -0.0 0.0 -0.0 11.2019 2.35115 -22.3025 -16.5572 27.8055 -57.4611 1.16602 30.0102 -0.312555 21.8955 -0.245023 2.76924 -0.330793 7.99277 5.63522 0.0 0.0 0.0 22.8978 -7.31768 4.80365 -46.3067 -0.915933 6.85755 35.7411 -24.7847 -5.16907 37.1426 -0.0 -0.0 -0.0 0.0 -0.0 -7.6936 35.6652 3.03959 0.23335 0.00967888 0.0345013 25.7671 -21.1982 3.53293 20.3025 -0.0 -0.0 0.0 0.0 0.0 
1692.98 726.964 -1366.77 0.960404 65.0325 -7.24439 2.63904 0.395812 1.40579 2.64008 0.305565 1.42812 2.64754 0.066092 1.45895 2.64469 0.295652 1.43021 -12.2038 11.833 1.22636 -12.4754 21.6828 4.62716 -0.0 0.0 -0.0 3.29655 5.46194 6.66289 -45.3365 -15.5763 61.0758 0.748645 -20.3476 0.134351 61.9829 -1.9536 -7.28778 -0.774059 10.515 -0.594552 -0.0 0.0 -0.0 11.2155 1.53433 -22.2874 -13.3096 28.8017 -57.51 1.27293 32.2331 -0.367825 20.3867 -0.262281 2.5773 -0.458399 8.06669 6.53332 0.0 0.0 0.0 23.3996 -6.8834 5.40746 -46.9756 -0.969084 6.94571 38.3201 -24.3083 -5.40311 38.1263 -0.0 -0.0 -0.0 0.0 -0.0 -8.3871 34.0268 2.50401 1.6502 0.0714628 0.243131 31.0216 -21.9487 4.15472 18.1493 -0.0 -0.0 0.0 0.0 0.0 
1676.21 725.399 -1379.36 0.810394 63.7996 -6.76207 2.66953 0.500614 1.28625 2.67036 0.417759 1.31549 2.67985 0.196113 1.36622 2.67748 0.409402 1.31812 -11.9241 13.0748 2.9619 -12.1929 22.9075 6.59527 -0.0 0.0 -0.0 2.77315 6.22928 5.75217 -46.5911 -15.737 61.6077 0.791668 -21.4135 0.149686 63.754 -2.11929 -7.44311 -0.561892 9.7599 0.438741 -0.0 0.0 -0.0 11.2335 0.884712 -22.2871 -11.682 29.0811 -58.2103 1.36907 34.1432 -0.420456 18.154 -0.278533 2.29259 -0.387339 9.44999 6.64342 0.0 0.0 0.0 29.9281 -7.37452 2.71036 -47.4576 -1.00803 7.00887 36.453 -21.7209 -5.09293 38.8255 -0.0 -0.0 -0.0 0.0 -0.0 -9.84715 32.7905 1.87516 0.93327 0.0395541 0.137751 39.2623 -21.9827 5.00857 16.2996 -0.0 -0.0 0.0 0.0 0.0 
1658.48 720.697 -1391.15 0.611728 62.7246 -5.94081 2.68943 0.567559 1.17664 2.69007 0.491542 1.21036 2.7004 0.286628 1.27452 2.69846 0.484303 1.21328 -11.0797 13.9523 3.89735 -11.3031 23.8508 7.56222 -0.0 0.0 -0.0 2.25114 6.91266 4.85539 -47.6279 -15.8753 62.1017 0.804484 -21.728 0.154398 65.3775 -2.27535 -7.58098 -0.226935 8.7381 2.16385 -0.0 0.0 -0.0 11.2487 0.206732 -22.2756 -10.4106 29.1509 -59.1196 1.41156 34.961 -0.444556 15.6124 -0.283518 1.96804 -0.207107 12.5643 6.74974 0.0 0.0 0.0 33.7746 -9.62279 1.17185 -48.7867 -1.11815 7.18131 37.0959 -20.4275 -5.09979 40.1858 -0.0 -0.0 -0.0 0.0 -0.0 -10.6149 31.0307 0.742378 0.772807 0.0325934 0.114112 41.983 -23.9991 5.32104 15.0012 -0.0 -0.0 0.0 0.0 0.0 
1644.81 719.513 -1402.18 0.1625 61.2099 -4.8655 2.76362 0.641508 1.15268 2.76418 0.566865 1.19116 2.77593 0.365769 1.26743 2.77413 0.561332 1.19377 -10.4287 14.3114 3.8322 -10.6257 24.4721 7.45996 -0.0 0.0 -0.0 1.88894 7.62676 4.26084 -48.5885 -15.9036 62.6048 0.811107 -21.8901 0.156858 66.9488 -2.43006 -7.71017 -0.000423579 8.03928 3.3411 -0.0 0.0 -0.0 11.333 -0.285242 -22.4194 -9.17458 29.1312 -60.2386 1.45218 35.7279 -0.468055 13.4473 -0.276409 1.69161 -0.0792071 14.7482 6.81378 0.0 0.0 0.0 36.4944 -11.8147 0.693321 -48.1972 -1.06881 7.10514 38.1489 -19.6362 -5.16772 40.0775 -0.0 -0.0 -0.0 0.0 -0.0 -11.1517 29.8549 -0.425107 0.673811 0.0283324 0.0995181 42.2188 -25.6256 5.39778 13.6871 -0.0 -0.0 0.0 0.0 0.0 
1636.45 720.757 -1408.47 -1.05211 60.2149 -3.41325 2.83801 0.667808 1.21033 2.83863 0.589444 1.25037 2.85144 0.380188 1.32902 2.84945 0.585295 1.25232 -9.96735 14.5625 3.78133 -10.1431 24.9064 7.37779 -0.0 0.0 -0.0 1.75019 8.14335 4.05529 -49.075 -16.0038 63.0338 0.816947 -22.0326 0.159042 68.0543 -2.54102 -7.79851 0.157287 7.55661 4.16899 -0.0 0.0 -0.0 11.3868 -0.691097 -22.5029 -8.23863 29.0555 -60.9787 1.48088 36.2608 -0.484919 11.921 -0.265123 1.49699 0.00957352 16.288 6.86975 0.0 0.0 0.0 38.2792 -13.4507 0.223509 -47.4564 -1.00793 7.00871 38.8254 -19.085 -5.20841 39.9932 -0.0 -0.0 -0.0 0.0 -0.0 -11.5549 29.0363 -1.24161 0.606169 0.025435 0.0895426 42.3513 -26.7194 5.45038 12.7429 -0.0 -0.0 0.0 0.0 0.0 
1616.19 717.736 -1410.62 -1.76487 59.828 -2.27989 2.73745 0.579604 1.26373 2.7382 0.498022 1.29804 2.7494 0.279828 1.36184 2.74715 0.491375 1.30057 -9.63737 14.4718 2.96631 -9.81066 25.2309 6.49686 -0.0 0.0 -0.0 1.92501 8.47655 4.38918 -48.8051 -16.1239 63.2202 0.825868 -22.2499 0.162405 68.9089 -2.62795 -7.86534 0.274094 7.11196 4.75051 -0.0 0.0 -0.0 11.4429 -0.965531 -22.5999 -7.59418 29.0678 -61.4102 1.49768 36.5696 -0.494896 10.8493 -0.254101 1.36054 0.0819915 17.1071 6.73095 0.0 0.0 0.0 39.1285 -15.4412 -0.962915 -44.9875 -0.814161 6.68191 38.6159 -18.7105 -5.17402 39.9374 -0.0 -0.0 -0.0 0.0 -0.0 -11.791 28.4215 -0.598866 0.573676 0.0240477 0.0847494 42.1131 -26.9377 5.43661 11.9655 -0.0 -0.0 0.0 0.0 0.0 
1604.15 711.353 -1414.59 -4.33327 60.0518 0.184276 2.94854 0.477674 1.2583 2.94933 0.396643 1.28614 2.95806 0.186572 1.33291 2.9558 0.394722 1.28673 -7.30112 13.6836 -0.0182755 -7.32263 25.4994 2.85975 -0.0 0.0 -0.0 2.14965 9.0523 4.82464 -48.4175 -17.0165 63.0199 0.759309 -20.6132 0.138082 69.4554 -2.68406 -7.90739 0.418604 7.1279 5.70104 -0.0 0.0 -0.0 11.5315 0.104004 -22.8678 -6.84173 29.2346 -61.5865 1.5023 36.654 -0.497649 10.0353 -0.244026 1.25706 0.134331 16.8561 6.27233 0.0 0.0 0.0 38.9454 -17.0345 -1.10383 -33.4822 -0.104986 5.06493 34.7993 -17.7561 -4.76647 38.1178 -0.0 -0.0 -0.0 0.0 -0.0 -10.9594 28.1252 -0.80497 1.62902 0.0705017 0.240024 40.7175 -25.8244 5.26434 11.2072 -0.0 -0.0 0.0 0.0 0.0 
1588.27 708.091 -1414.53 -6.65927 59.7863 2.92788 3.10367 0.406991 1.48648 3.10484 0.311589 1.50936 3.1127 0.0711549 1.53954 3.10953 0.313375 1.50899 -6.14053 13.1728 -1.67417 -6.05531 25.6114 0.828847 -0.0 0.0 -0.0 2.36163 9.43821 5.22 -47.9132 -17.6689 62.8554 0.713645 -19.4695 0.122433 70.2245 -2.76369 -7.96566 0.379983 7.33819 5.53271 -0.0 0.0 -0.0 11.46 0.533848 -22.746 -6.40283 29.1619 -61.6035 1.53922 37.3225 -0.519866 9.45329 -0.235921 1.18316 0.228551 17.3144 5.8355 0.0 0.0 0.0 39.2788 -18.4504 -1.78461 -23.638 0.234733 3.59419 31.5775 -17.0396 -4.40214 36.8428 -0.0 -0.0 -0.0 0.0 -0.0 -11.0455 27.8211 -0.614046 2.43009 0.107672 0.357313 40.0091 -24.9618 5.16756 10.8997 -0.0 -0.0 0.0 0.0 0.0 
1573.44 704.435 -1416.97 -8.52251 59.8598 5.08621 3.29221 0.261917 1.38581 3.29326 0.173212 1.39966 3.2971 -0.0438225 1.40966 3.29437 0.179334 1.39889 -4.91171 12.7398 -3.15353 -4.69532 25.7864 -1.04626 -0.0 0.0 -0.0 2.52793 9.31616 5.50213 -47.1632 -18.3945 62.2311 0.702861 -19.1969 0.118862 70.7398 -2.81749 -8.00411 0.352777 7.48488 5.41383 -0.0 0.0 -0.0 11.4114 0.880247 -22.6653 -6.11682 29.1005 -61.5836 1.52994 37.1555 -0.514247 9.0449 -0.229786 1.13135 0.28587 17.4983 5.52997 0.0 0.0 0.0 38.4568 -19.0985 -1.76421 -17.6105 0.316429 2.67334 29.4077 -16.5549 -4.14516 35.9517 -0.0 -0.0 -0.0 0.0 -0.0 -11.0343 27.6188 -0.512207 3.00551 0.135384 0.441245 39.543 -24.354 5.1034 10.6845 -0.0 -0.0 0.0 0.0 0.0 
1554.83 704.521 -1417.57 -9.27994 60.0729 5.74476 3.39058 0.181047 1.34274 3.39157 0.0952464 1.35154 3.39341 -0.111222 1.35032 3.39088 0.103412 1.35094 -4.74634 12.6417 -3.8742 -4.48897 26.1288 -1.84634 -0.0 0.0 -0.0 2.86053 9.39774 6.08679 -45.9651 -19.4418 62.6752 0.711751 -19.4217 0.121802 70.7041 -2.81376 -8.00147 0.0964216 8.44436 4.13383 -0.0 0.0 -0.0 11.2027 -0.108403 -22.1571 -6.90642 28.7415 -61.5215 1.50675 36.7352 -0.500309 7.68786 -0.206749 0.95954 0.345699 17.9288 5.31397 0.0 0.0 0.0 39.6206 -20.8353 -2.68891 -10.1822 0.283472 1.53487 21.6377 -13.8924 -3.13655 35.3362 -0.0 -0.0 -0.0 0.0 -0.0 -11.919 27.3773 -0.0630695 2.42672 0.107512 0.356821 41.5572 -23.059 5.253 11.1056 -0.0 -0.0 0.0 0.0 0.0 
1535.64 697.552 -1419.59 -10.5133 60.3592 7.36237 3.41851 0.101587 1.21145 3.41933 0.0242991 1.21546 3.41949 -0.160131 1.20511 3.41747 0.0321888 1.21527 -4.69134 12.5593 -4.61941 -4.39572 26.5288 -2.64584 -0.0 0.0 -0.0 2.71454 10.8532 5.91188 -46.4936 -20.7982 61.1535 0.759263 -20.6121 0.138066 70.6747 -2.81067 -7.99928 -0.0362269 9.0243 3.51229 -0.0 0.0 -0.0 11.0324 -1.10118 -21.7299 -7.17296 28.6245 -60.7379 1.49753 36.5668 -0.494805 6.73701 -0.188186 0.839499 0.445906 19.1323 5.16194 0.0 0.0 0.0 40.3062 -22.2379 -3.5898 -4.4105 0.156301 0.658666 15.7453 -11.071 -2.3096 34.8514 -0.0 -0.0 -0.0 0.0 -0.0 -12.8558 27.0573 0.00441771 2.04066 0.0893964 0.300357 42.3048 -22.9051 5.31594 11.8012 -0.0 -0.0 0.0 0.0 0.0 
